<?xml version="1.0" standalone="no"?><!DOCTYPE svg PUBLIC "-//W3C//DTD SVG 1.1//EN" "http://www.w3.org/Graphics/SVG/1.1/DTD/svg11.dtd"><svg t="1630411324944" class="icon" viewBox="0 0 1108 1024" version="1.1" xmlns="http://www.w3.org/2000/svg" p-id="10046" xmlns:xlink="http://www.w3.org/1999/xlink" width="216.40625" height="200"><defs><style type="text/css"></style></defs><path d="M143.58228 412.585898l298.760278 151.596967c29.500872 14.920961 47.747076 42.631318 47.747076 72.558504v303.279197c0 64.458553-79.464777 104.873043-142.985441 72.473241L48.343915 861.067365c-29.41561-15.006224-47.747076-42.631318-47.747077-72.558504V485.059138c0-64.458553 79.464777-104.873043 142.985442-72.47324z m924.758554 72.47324v303.364461c0 29.841923-18.246204 57.55228-47.747076 72.473241l-298.675016 151.767492c-63.520664 32.229277-142.900179-8.09995-142.900178-72.643766V636.741369c0-30.012448 18.160942-57.637542 47.661814-72.558504l298.675015-151.68223c63.520664-32.229277 142.985441 8.014688 142.985441 72.558503zM577.483836 12.448345l269.856245 157.650615a87.564728 87.564728 0 0 1 0 150.829603L577.483836 478.493915a85.177374 85.177374 0 0 1-86.115262 0L221.682855 320.928563a87.64999 87.64999 0 0 1 0-150.829603L491.453836 12.448345a85.262636 85.262636 0 0 1 86.115263 0z" fill="#4CAFEB" p-id="10047"></path></svg>